<svg xmlns="http://www.w3.org/2000/svg" width="1381.953" height="1381.951" viewBox="0 0 1381.953 1381.951">
  <g id="Group_250" data-name="Group 250" transform="translate(7.339 306.338)">
    <g id="Group_236" data-name="Group 236" transform="translate(-7.339 -306.339)">
      <path id="Path_1047" data-name="Path 1047" d="M417.4,0,379.487,22.032,381.5,23.2,420.776.374,420.128,0Z" transform="translate(501.505 0)" fill="#006399"/>
      <path id="Path_1048" data-name="Path 1048" d="M467.725,27.93l-2.017-1.163L426.437,49.587l2.017,1.165Z" transform="translate(563.551 35.372)" fill="#006399"/>
      <path id="Path_1049" data-name="Path 1049" d="M514.674,55.037l-2.017-1.165L473.386,76.695,475.4,77.86Z" transform="translate(625.596 71.192)" fill="#006399"/>
      <path id="Path_1050" data-name="Path 1050" d="M561.624,82.143l-2.017-1.165L520.335,103.8l2.017,1.165Z" transform="translate(687.641 107.014)" fill="#006399"/>
      <path id="Path_1051" data-name="Path 1051" d="M608.573,109.248l-2.017-1.163-39.271,22.821,2.017,1.165Z" transform="translate(749.686 142.837)" fill="#006399"/>
      <path id="Path_1052" data-name="Path 1052" d="M567.589,193.39l2.015,1.165,62.259-36.181v-2.335Z" transform="translate(750.089 206.209)" fill="#006399"/>
      <path id="Path_1053" data-name="Path 1053" d="M567.895,247.37l2.018,1.163,61.548-35.768v-2.338Z" transform="translate(750.492 278.087)" fill="#006399"/>
      <path id="Path_1054" data-name="Path 1054" d="M568.2,301.348l2.017,1.163,60.84-35.355v-2.338Z" transform="translate(750.895 349.966)" fill="#006399"/>
      <path id="Path_1055" data-name="Path 1055" d="M398.912,0l40.2,23.206L332.843,84.962l2.017,1.163L441.124,24.372,548.1,86.137,441.839,147.889l2.015,1.163L550.118,87.3,657.1,149.064,550.833,210.817l2.015,1.163,106.266-61.753L766.09,211.989v0L659.827,273.744l2.017,1.165,106.264-61.755,106.976,61.762L768.82,336.672l2.015,1.165L877.1,276.082,942.088,313.6v-2.34l-62.965-36.355-2.017-1.165-39.529-22.821-67.45-38.941-2.015-1.165L661.134,149.05l-2.017-1.163L552.138,86.123l-2.015-1.163L443.146,23.2l-2.017-1.165L402.97,0Z" transform="translate(439.864 0)" fill="#006399"/>
      <path id="Path_1056" data-name="Path 1056" d="M306.649,0l-.662.385,39.529,22.821L239.25,84.962l2.017,1.163L347.531,24.372,454.507,86.137,348.244,147.889l2.02,1.163L456.527,87.3,563.5,149.064,457.24,210.817l2.015,1.163,106.266-61.753L672.5,211.992,566.233,273.744l2.015,1.165,106.266-61.755,106.976,61.764L675.227,336.674l2.018,1.163,106.264-61.755,67.45,38.944,39.529,22.821L784.221,399.6l2.017,1.163L892.5,339.012l106.976,61.764L893.215,462.529l2.017,1.163L1001.5,401.94l64.279,37.112v-2.342l-62.257-35.944L1001.5,399.6,894.524,337.837l-2.017-1.163-39.529-22.823-67.45-38.941-2.015-1.165L676.534,211.98l-2.017-1.163L567.54,149.052l-2.015-1.163L458.547,86.125l-2.017-1.163L349.553,23.2l-2.017-1.163L309.374,0Z" transform="translate(316.177 0)" fill="#006399"/>
      <path id="Path_1057" data-name="Path 1057" d="M568.5,355.325l2.015,1.165,60.135-34.946v-2.335Z" transform="translate(751.299 421.844)" fill="#006399"/>
      <path id="Path_1058" data-name="Path 1058" d="M259.341,27.943,298.87,50.764,192.606,112.519l2.015,1.163L300.887,51.929l106.976,61.762L301.6,175.447l2.017,1.165,106.264-61.755,106.976,61.762h0L410.594,238.377l2.017,1.163,106.264-61.755,106.976,61.762L519.588,301.3l2.017,1.165,106.266-61.753,106.976,61.762L628.583,364.229l2.015,1.165,106.264-61.753,67.45,38.939L843.841,365.4,737.577,427.157l2.017,1.165,106.264-61.755,106.976,61.764L846.571,490.084l2.017,1.165,106.264-61.755,106.977,61.764L955.565,553.014l2.017,1.163,106.266-61.753,63.568,36.7v-2.342l-61.548-35.536-2.017-1.165L956.872,428.322l-2.015-1.165L847.878,365.392l-2.015-1.163-39.531-22.823-67.448-38.941-2.017-1.163L629.891,239.537l-2.015-1.163L520.9,176.61l-2.017-1.165L411.9,113.682l-2.015-1.165L302.907,50.753l-2.017-1.163L261.361,26.766Z" transform="translate(254.536 35.372)" fill="#006399"/>
      <path id="Path_1059" data-name="Path 1059" d="M212.7,55.048l39.529,22.823L145.962,139.624l2.015,1.163L254.243,79.034,361.222,140.8,254.956,202.552l2.017,1.165,106.264-61.755,106.979,61.764L363.952,265.481l2.015,1.163L472.23,204.889l106.979,61.764L472.943,328.409l2.02,1.163,106.264-61.753L688.2,329.584,581.939,391.336l2.015,1.163L690.22,330.747,797.2,392.509,690.933,454.264l2.017,1.163,106.264-61.753,106.979,61.762L799.927,517.191l2.017,1.165L908.208,456.6l106.979,61.762L908.92,580.121l2.017,1.163L1017.2,519.529l106.974,61.762-106.264,61.755,2.017,1.165L1126.2,582.459l62.86,36.293v-2.34l-60.84-35.13-2.015-1.163-106.979-61.762-2.017-1.168L910.227,455.427l-2.015-1.165L801.236,392.5l-2.02-1.165L759.69,368.513l-67.448-38.941-2.017-1.165L583.246,266.645l-2.015-1.163L474.252,203.717l-2.017-1.165L365.256,140.787l-2.015-1.163L256.263,77.86,254.245,76.7,214.719,53.874Z" transform="translate(192.894 71.195)" fill="#006399"/>
      <path id="Path_1060" data-name="Path 1060" d="M568.81,409.3l2.015,1.163,59.424-34.533V373.6Z" transform="translate(751.702 493.723)" fill="#006399"/>
      <path id="Path_1061" data-name="Path 1061" d="M166.053,82.157l39.529,22.821L99.318,166.73l2.015,1.165L207.6,106.143,314.577,167.9,208.311,229.658l2.017,1.168L316.592,169.07l106.979,61.762L317.307,292.588l2.015,1.165L425.586,232,532.565,293.76,426.3,355.515l2.017,1.165,106.264-61.753L641.558,356.69h0L535.295,418.443l2.017,1.165,106.264-61.755,106.976,61.764L644.289,481.37l2.017,1.163L752.57,420.78l106.979,61.764L753.285,544.3l2.015,1.165,106.264-61.755,106.979,61.764L862.278,607.227l2.015,1.163,106.266-61.755L1077.533,608.4,971.27,670.155l2.02,1.163,106.264-61.753L1186.53,671.33l-106.264,61.753,2.015,1.163,106.266-61.753,62.154,35.884v-2.34l-60.132-34.719-2.017-1.163-106.979-61.764-2.015-1.163L972.579,545.463l-2.017-1.165L863.585,482.533l-2.015-1.163L754.592,419.606l-2.017-1.163L713.046,395.62,645.6,356.678l-2.015-1.163L536.6,293.751l-2.015-1.163L427.608,230.823l-2.017-1.165L318.612,167.893,316.6,166.73,209.621,104.966,207.6,103.8,168.075,80.98Z" transform="translate(131.252 107.017)" fill="#006399"/>
      <path id="Path_1062" data-name="Path 1062" d="M0,387.072l14.918,8.613L0,404.354v2.335l16.933-9.841,67.45,38.941,39.529,22.823L17.63,520.377l2.017,1.163,106.282-61.764L232.906,521.54,126.626,583.3l2.015,1.163,106.282-61.762L341.9,584.468,235.617,646.232l2.02,1.165,106.28-61.764h0L450.9,647.4,344.611,709.162l2.017,1.163L452.91,648.56l106.979,61.764L453.607,772.089l2.015,1.163,106.284-61.764L668.885,773.25,562.6,835.017l2.017,1.163L670.9,774.416l106.979,61.762L713.67,873.492h4.021l62.2-36.149,39.531,22.823,2-1.165L781.9,836.18l-2.017-1.166L672.9,773.252l-2.015-1.163L563.91,710.325l-2.017-1.163L454.914,647.4l-2.015-1.165L345.92,584.468,343.9,583.3,236.926,521.54l-2.017-1.163L127.93,458.612l-2.015-1.163L86.387,434.626,18.939,395.685l-2.017-1.166L0,384.751Z" transform="translate(0 508.46)" fill="#006399"/>
      <path id="Path_1063" data-name="Path 1063" d="M119.358,109.262l39.526,22.823-66.9,38.879L52.713,193.786l2.015,1.163L94,172.126l66.9-38.879L267.88,195.012l-66.9,38.879L161.7,256.714l2.02,1.163,39.269-22.823,66.9-38.879L376.874,257.94l-66.9,38.879L270.7,319.641l2.015,1.163,39.271-22.821,66.9-38.881,106.976,61.764-66.9,38.879-39.271,22.823,2.015,1.163,39.273-22.821,66.9-38.879,106.979,61.762-66.9,38.881L488.688,445.5l2.017,1.165,39.271-22.823,66.9-38.879,67.45,38.941,39.526,22.821-66.9,38.879-39.271,22.823,2.017,1.165,39.271-22.823,66.9-38.879h0L812.851,509.65l-66.9,38.879-39.273,22.823,2.017,1.165,39.271-22.823,66.9-38.879,106.979,61.762-66.9,38.879-39.271,22.823,2.015,1.165,39.273-22.821,66.9-38.881L1030.838,635.5l-66.9,38.881-39.271,22.821,2.017,1.168,39.271-22.823,66.9-38.879,106.979,61.762-66.9,38.879-39.269,22.821,2.015,1.165,39.271-22.821,66.9-38.881,106.976,61.764-66.9,38.879-39.271,22.823,2.017,1.163,39.271-22.823,66.9-38.879h0L1312.29,798V795.66l-59.424-34.31-2.015-1.163-106.979-61.764-2.017-1.163L1034.875,635.5l-2.015-1.163L925.884,572.568l-2.017-1.165L816.888,509.638l-2.015-1.163L707.894,446.711l-2.015-1.163-39.531-22.823L598.9,383.785l-2.017-1.165L489.9,320.858l-2.015-1.165L380.913,257.93l-2.02-1.168L271.917,195l-2.015-1.165L162.924,132.073l-2.017-1.163-39.529-22.823Z" transform="translate(69.662 142.84)" fill="#006399"/>
      <path id="Path_1064" data-name="Path 1064" d="M608.425,440.408l-39.271,22.823,2.015,1.163,39.271-22.823,19.355-11.246v-2.338Z" transform="translate(752.157 565.6)" fill="#006399"/>
      <path id="Path_1065" data-name="Path 1065" d="M0,441.107l15.626,9.021L0,459.21v2.338l17.644-10.254L124.62,513.056,85.349,535.879l2.017,1.163,39.271-22.821,106.976,61.764-39.269,22.821,2.015,1.165,39.271-22.823,106.976,61.764-39.271,22.823,2.017,1.163,39.273-22.823L451.6,701.841,412.33,724.664l2.017,1.163L453.619,703,560.6,764.768l-39.271,22.823,2.015,1.163,39.273-22.821,62.609,36.146h4.019l-64.625-37.312-2.017-1.163L455.622,701.841l-2.015-1.163L346.628,638.913l-2.017-1.163L237.635,575.986l-2.017-1.165L128.641,513.056l-2.017-1.163L19.647,450.128l-2.017-1.163L0,438.788Z" transform="translate(0 579.872)" fill="#006399"/>
      <path id="Path_1066" data-name="Path 1066" d="M1313.29,850.17l-106.979-61.764-2.015-1.163-106.979-61.764-2.015-1.163L988.324,662.55l-2.017-1.165L879.33,599.623l-2.017-1.165L770.334,536.7l-2.015-1.165L661.341,473.766l-2.015-1.163L619.8,449.779l-67.45-38.941-2.017-1.163L443.353,347.911l-2.017-1.163L334.359,284.983l-2.017-1.163L225.363,222.056l-2.015-1.165L116.37,159.128l-2.017-1.165-39.617-22.77-1.913,1.112-.109.063,39.529,22.823.109-.063,2.01,1.161-2.12-1.1L6.069,220.892l2.015,1.163,106.282-61.764,106.979,61.764,2.013,1.161-2.122-1.1-106.173,61.7,2.017,1.163,106.28-61.764,106.979,61.764,2.01,1.161-2.117-1.1-106.175,61.7,2.017,1.163,106.282-61.762,106.976,61.762,2.013,1.163-2.12-1.1-106.175,61.7,2.017,1.165L441.35,349.076l106.976,61.762L550.339,412l-2.12-1.1L442.046,472.6l2.015,1.165L550.343,412l67.45,38.941-.107.063,39.526,22.821L551.04,535.53l2.015,1.165,106.282-61.764,106.979,61.762L660.034,598.457l2.017,1.165,106.173-61.7,106.914,61.6.172.1,2.013,1.161-2.12-1.1-106.175,61.7,2.017,1.163,106.282-61.764L984.3,662.55l2.01,1.161-2.117-1.1-106.175,61.7,2.017,1.163,106.282-61.764L1093.3,725.478l2.01,1.161-2.12-1.1-106.173,61.7,2.015,1.163,106.282-61.764,106.979,61.764,2.013,1.163-2.122-1.1-106.173,61.7,2.015,1.165,106.282-61.764,106.979,61.762,2.013,1.163-2.12-1.1L1205,913.1l2.017,1.165L1313.3,852.5l-.109.063,39.529,22.821.109-.063,2-1.163-39.526-22.823ZM768.224,537.921l.109-.063,39.413,22.756Z" transform="translate(8.02 178.661)" fill="#006399"/>
      <path id="Path_1067" data-name="Path 1067" d="M0,170.924,12.086,177.9,0,184.925v2.335l14.1-8.2L121.077,240.83h0L14.8,302.595l2.015,1.163,106.282-61.764,106.979,61.762L123.791,365.522l2.017,1.165,106.282-61.764,106.976,61.762L232.785,428.452l2.017,1.163,106.28-61.764,106.979,61.762L341.779,491.377l2.017,1.165,106.282-61.764L557.057,492.54,450.775,554.3l2.015,1.165L559.072,493.7l106.976,61.764-106.28,61.764,2.015,1.165,106.282-61.764h0L775.044,618.4,668.76,680.16l2.02,1.166,106.28-61.765,106.979,61.765L777.756,743.089l2.015,1.163,106.284-61.764,106.976,61.764L886.75,806.017l2.017,1.163,106.282-61.764,106.979,61.764L995.746,868.945l2.015,1.163,106.282-61.764,106.976,61.764-106.28,61.764,2.015,1.165,106.284-61.764,39.526,22.821,2-1.163-39.529-22.823-2.017-1.163L1106.046,807.18l-2.015-1.163L997.053,744.253l-2.015-1.163L888.059,681.325l-2.017-1.166L779.063,618.4l-2.015-1.165L670.069,555.468l-2.017-1.163L561.075,492.54l-2.015-1.163-39.529-22.823-67.45-38.941-2.017-1.163L343.088,366.685l-2.017-1.165L234.092,303.755l-2.015-1.163L125.1,240.828l-2.017-1.163L16.1,177.9l-2.015-1.165L0,168.6Z" transform="translate(0 222.816)" fill="#006399"/>
      <path id="Path_1068" data-name="Path 1068" d="M0,224.962l12.794,7.387L0,239.783v2.336l14.809-8.606,106.976,61.764h0L15.506,357.041l2.015,1.163L123.805,296.44,230.781,358.2,124.5,419.969l2.017,1.163L232.8,359.367l106.976,61.764L233.493,482.9l2.017,1.163L341.793,422.3l67.448,38.944,39.529,22.821L342.487,545.824l2.017,1.165,106.282-61.764,106.979,61.764L451.483,608.751l2.015,1.165L559.78,548.152l106.976,61.764-106.28,61.765,2.017,1.163L668.776,611.08l106.976,61.762L669.47,734.609l2.017,1.163,106.28-61.765L884.746,735.77,778.464,797.534l2.017,1.165,106.282-61.764L993.74,798.7,887.458,860.461l2.017,1.168,106.282-61.764,106.979,61.762L996.454,923.391l2.015,1.166,106.282-61.765,39.529,22.821,2-1.165-39.529-22.821-2.015-1.165L997.761,798.7l-2.015-1.163L888.767,735.77l-2.017-1.163L779.771,672.844l-2.015-1.165L670.777,609.917l-2.017-1.165L561.783,546.989l-2.015-1.168L452.79,484.06l-2.015-1.166-39.531-22.821L343.8,421.132l-2.017-1.163L234.8,358.2l-2.015-1.163L125.806,295.277l-2.017-1.165L16.813,232.349,14.8,231.184,0,222.641Z" transform="translate(0 294.227)" fill="#006399"/>
      <path id="Path_1069" data-name="Path 1069" d="M0,279l13.5,7.793L0,294.639v2.338l15.517-9.019L122.5,349.72,16.214,411.485l2.015,1.165,106.284-61.764,106.976,61.762L125.207,474.412l2.017,1.165,106.282-61.762,106.976,61.762L234.2,537.34l2.015,1.165L342.5,476.741l106.979,61.764L343.195,600.269l2.017,1.163,106.282-61.764,106.979,61.764L452.191,663.2l2.015,1.163L560.488,602.6,667.464,664.36l-106.28,61.764,2.017,1.163,106.282-61.765L776.46,727.288,670.178,789.052l2.017,1.165,106.28-61.764,106.979,61.764L779.172,851.979l2.017,1.165L887.472,791.38,994.45,853.145,888.166,914.909l2.017,1.163,106.282-61.764,39.529,22.823,2-1.165-39.529-22.821-2.015-1.165L889.475,790.217l-2.017-1.165L780.479,727.288l-2.015-1.163L671.485,664.36,669.47,663.2,562.494,601.432l-2.017-1.163L453.5,538.505l-2.015-1.165L344.5,475.577l-2.017-1.165-39.529-22.821-67.45-38.944-2.015-1.163L126.514,349.72l-2.017-1.163L17.521,286.793l-2.015-1.163L0,276.678Z" transform="translate(0 365.638)" fill="#006399"/>
      <path id="Path_1070" data-name="Path 1070" d="M0,333.034l14.21,8.2L0,349.5v2.336L16.225,342.4,123.2,404.168,16.922,465.93l2.017,1.165,106.282-61.764L232.2,467.093,125.918,528.86l2.015,1.163,106.28-61.764,106.979,61.762L234.909,591.788l2.017,1.163,106.282-61.764,106.979,61.762L343.9,654.713l2.017,1.165L452.2,594.114l106.979,61.762L452.9,717.64l2.015,1.168L561.2,657.044l106.976,61.762L561.893,780.57l2.017,1.165,106.282-61.764,106.976,61.762L670.889,843.5l2.015,1.166L779.186,782.9l106.976,61.764L779.88,906.425l2.02,1.163,106.28-61.764,39.529,22.823,2-1.163-39.529-22.823-2.017-1.163L781.189,781.733l-2.017-1.163L672.2,718.806l-2.017-1.165L563.2,655.876l-2.017-1.163L454.206,592.948l-2.015-1.163L345.212,530.021l-2.017-1.163L236.216,467.1,234.2,465.93l-39.529-22.821-67.45-38.941L125.207,403,18.229,341.238l-2.015-1.165L0,330.715Z" transform="translate(0 437.05)" fill="#006399"/>
      <path id="Path_1071" data-name="Path 1071" d="M323.807,0,285.894,22.034l2.015,1.163L327.828,0Z" transform="translate(377.819 0)" fill="#006399"/>
    </g>
  </g>
</svg>
